<svg width="585" height="306" viewBox="0 0 585 306" fill="none" xmlns="http://www.w3.org/2000/svg">
<path d="M452.913 162.22L367.81 148.884L379.092 199.595L452.913 162.22Z" fill="#D12053"/>
<path d="M452.913 162.219L388.785 73.1211L367.826 148.9L452.913 162.219Z" fill="#E2136E"/>
<path d="M365.836 147.873L298.644 62L386.635 72.5114L365.836 147.873Z" fill="#D12053"/>
<path d="M335.233 111.989L297.922 76.8284H307.743L335.233 111.989Z" fill="#9E1638"/>
<path d="M471.063 118.906L455.272 161.738L429.675 126.336L471.063 118.906Z" fill="#D12053"/>
<path d="M389.026 197.028L450.987 172.137L453.587 164.226L389.026 197.028Z" fill="#E2136E"/>
<path d="M339.47 244L366.013 150.89L379.477 211.471L339.47 244Z" fill="#9E1638"/>
<path d="M473.534 119.243L467.019 136.928L490.513 136.543L473.534 119.243ZM94 126.336C95.1394 126.433 96.2949 126.641 97.5145 126.641C98.7342 126.641 99.7291 126.433 101.029 126.336V164.001C104.736 157.694 109.406 153.538 116.275 153.538C128.696 153.538 134.024 165.83 134.024 177.128C134.024 190.656 126.802 203.607 114.14 203.607C111.605 203.663 109.103 203.024 106.905 201.759C104.707 200.495 102.897 198.653 101.671 196.434C99.5526 198.295 97.675 200.526 95.669 202.548H94.0642L94 126.336ZM100.869 181.734C100.869 192.711 105.522 200.366 113.177 200.366C123.111 200.366 126.305 187.014 126.305 177.545C126.305 166.552 122.678 157.903 114.076 157.806C104.03 157.726 100.869 169.618 100.869 181.75V181.734Z" fill="#E2136E"/>
<path d="M166.425 150.697L158.946 160.326C165.975 170.597 173.261 180.659 180.322 191.058L187.447 202.291V202.853C185.698 202.741 184.109 202.516 182.633 202.516C181.157 202.516 179.295 202.741 177.722 202.853C175.781 199.258 173.855 195.936 171.656 192.679L152.399 164.193C151.965 163.744 150.922 163.391 150.922 163.856V202.853C149.51 202.741 148.274 202.516 147.055 202.516C145.835 202.516 144.423 202.741 143.187 202.853V126.336C144.423 126.433 145.755 126.673 147.055 126.673C148.355 126.673 149.51 126.433 150.922 126.336V160.872C150.922 161.546 152.238 161.096 153.105 160.198C154.776 158.464 156.341 156.632 157.791 154.709L179.439 126.304C180.579 126.4 181.718 126.641 182.954 126.641C184.19 126.641 185.137 126.4 186.388 126.304L166.425 150.697ZM224.663 194.235C224.663 198.215 224.406 200.237 229.589 198.921V201.152C228.743 201.576 227.856 201.915 226.941 202.163C222.368 203.078 218.58 202.259 217.874 196.273L217.088 197.156C215.559 199.159 213.587 200.782 211.326 201.895C209.065 203.009 206.577 203.584 204.057 203.575C197.83 203.575 192.374 198.664 192.374 191.138C192.374 179.535 200.398 178.011 208.631 176.486C215.596 175.17 217.971 174.56 217.971 169.666C217.971 162.123 214.28 157.758 207.684 157.758C205.431 157.714 203.22 158.363 201.348 159.617C199.477 160.872 198.036 162.671 197.221 164.771H196.258V159.122C200.218 155.677 205.246 153.704 210.492 153.538C219.72 153.538 224.743 159.122 224.743 170.629L224.663 194.235ZM217.634 177.433L214.536 178.139C208.551 179.455 199.58 180.466 199.58 189.758C199.58 196.177 202.789 199.387 208.181 199.387C210.971 199.043 213.521 197.641 215.307 195.471C215.949 194.733 217.714 193 217.714 192.261L217.634 177.433ZM240.342 192.887C242.428 196.883 246.311 200.462 250.452 200.462C252.814 200.341 255.037 199.306 256.649 197.574C258.26 195.842 259.135 193.551 259.086 191.186C259.086 177.449 238.303 186.372 238.303 168.591C238.303 158.833 244.723 153.554 252.634 153.554C256.133 153.477 259.583 154.388 262.584 156.186C261.717 158.54 261.02 160.953 260.498 163.407H259.695C258.54 160.053 255.475 156.683 252.217 156.683C247.82 156.683 244.193 159.652 244.193 165.156C244.193 178.171 264.975 171.239 264.975 187.527C264.975 198.424 256.534 203.575 248.767 203.575C244.877 203.572 241.069 202.459 237.79 200.366C238.578 197.924 239.194 195.431 239.635 192.903L240.342 192.887ZM276.819 126.336C277.99 126.433 279.129 126.641 280.349 126.641C281.569 126.641 282.564 126.433 283.88 126.336V163.391C286.961 157.18 291.791 153.538 298.05 153.538C308.257 153.538 312.22 160.535 312.22 173.373V202.853C310.888 202.741 309.861 202.548 308.69 202.548C307.518 202.548 306.315 202.757 305.159 202.853V175.7C305.159 164.466 302.897 158.801 295.402 158.801C287.474 158.801 283.88 164.514 283.88 175.09V202.853C282.564 202.741 281.521 202.548 280.349 202.548C279.178 202.548 278.006 202.757 276.819 202.853V126.336Z" fill="#231F20"/>
</svg>
