<svg width="184" height="155" viewBox="0 0 184 155" fill="none" xmlns="http://www.w3.org/2000/svg">
<path d="M14.4987 143.068C18.8268 151.095 28.0126 154.541 28.0126 154.541C28.0126 154.541 30.1812 144.973 25.8531 136.946C21.525 128.919 12.3392 125.474 12.3392 125.474C12.3392 125.474 10.1706 135.042 14.4987 143.068Z" fill="#D6D6D6"/>
<path d="M17.4736 140.428C25.2876 145.129 28.2971 154.467 28.2971 154.467C28.2971 154.467 18.6375 156.182 10.8234 151.481C3.00942 146.78 0 137.442 0 137.442C0 137.442 9.6596 135.726 17.4736 140.428Z" fill="#E94560"/>
<path d="M159.233 0H158.537V6.44249H159.233V0Z" fill="#F2F2F2"/>
<path d="M180.476 0H179.78V6.44249H180.476V0Z" fill="#F2F2F2"/>
<path d="M126.085 139.393H43.6257V138.8H125.491V110.028H50.5579L46.9177 102.444L47.4526 102.188L50.9312 109.434H126.085V139.393Z" fill="#2F2E41"/>
<path d="M54.6005 153.928C58.0406 153.928 60.8294 151.139 60.8294 147.699C60.8294 144.259 58.0406 141.47 54.6005 141.47C51.1604 141.47 48.3716 144.259 48.3716 147.699C48.3716 151.139 51.1604 153.928 54.6005 153.928Z" fill="#3F3D56"/>
<path d="M116 153.928C119.44 153.928 122.229 151.139 122.229 147.699C122.229 144.259 119.44 141.47 116 141.47C112.56 141.47 109.771 144.259 109.771 147.699C109.771 151.139 112.56 153.928 116 153.928Z" fill="#3F3D56"/>
<path d="M134.904 100.24H42.2199L22.1652 34.6885H155.558L155.436 35.0742L134.904 100.24ZM42.6587 99.6472H134.469L154.749 35.2817H22.9669L42.6587 99.6472Z" fill="#2F2E41"/>
<path d="M127.669 96.8291H46.2613L28.6465 38.6924H145.81L145.703 39.0347L127.669 96.8291Z" fill="#F2F2F2"/>
<path d="M157.219 28.8317L156.646 28.6795L160.56 13.9248H183.332V14.5182H161.017L157.219 28.8317Z" fill="#2F2E41"/>
<path d="M148.892 54.5615H28.6459V55.1548H148.892V54.5615Z" fill="#2F2E41"/>
<path d="M142.006 76.417H35.3324V77.0102H142.006V76.417Z" fill="#2F2E41"/>
<path d="M89.1561 34.9844H88.5629V99.9431H89.1561V34.9844Z" fill="#2F2E41"/>
<path d="M115.716 34.9657L111.458 99.9229L112.05 99.9617L116.308 35.0045L115.716 34.9657Z" fill="#2F2E41"/>
<path d="M62.0153 34.9653L61.4232 35.0039L65.6569 99.9627L66.249 99.9241L62.0153 34.9653Z" fill="#2F2E41"/>
<path d="M182.479 154.304H0V155H182.479V154.304Z" fill="#2F2E41"/>
<path d="M34.9108 11.4922H34.2144V17.9347H34.9108V11.4922Z" fill="#F2F2F2"/>
</svg>
