<svg width="585" height="306" viewBox="0 0 585 306" fill="none" xmlns="http://www.w3.org/2000/svg">
<path d="M82.0509 217.285C77.2569 217.285 73.4674 218.886 70.6825 222.089C67.9175 225.272 66.535 229.638 66.535 235.188C66.535 240.897 67.8678 245.313 70.5333 248.436C73.2188 251.54 77.0381 253.091 81.9913 253.091C85.0348 253.091 88.506 252.544 92.4048 251.45V255.896C89.3812 257.03 85.6514 257.597 81.2155 257.597C74.7903 257.597 69.8272 255.647 66.3261 251.748C62.845 247.85 61.1044 242.31 61.1044 235.128C61.1044 230.633 61.9399 226.694 63.6108 223.313C65.3017 219.931 67.7285 217.325 70.8914 215.495C74.0742 213.665 77.8139 212.75 82.1106 212.75C86.6858 212.75 90.6842 213.585 94.1056 215.256L91.9573 219.613C88.6552 218.061 85.3531 217.285 82.0509 217.285ZM121.288 257L120.304 252.345H120.065C118.434 254.394 116.803 255.787 115.172 256.523C113.56 257.239 111.541 257.597 109.114 257.597C105.872 257.597 103.326 256.761 101.476 255.09C99.6456 253.419 98.7306 251.042 98.7306 247.959C98.7306 241.355 104.012 237.894 114.575 237.575L120.125 237.396V235.367C120.125 232.801 119.568 230.911 118.454 229.698C117.36 228.465 115.599 227.848 113.172 227.848C110.447 227.848 107.364 228.683 103.922 230.354L102.401 226.565C104.012 225.69 105.772 225.003 107.682 224.506C109.612 224.009 111.541 223.76 113.471 223.76C117.37 223.76 120.254 224.625 122.124 226.356C124.014 228.087 124.958 230.862 124.958 234.681V257H121.288ZM110.099 253.509C113.182 253.509 115.599 252.663 117.35 250.973C119.12 249.282 120.005 246.915 120.005 243.871V240.917L115.052 241.126C111.113 241.265 108.269 241.882 106.518 242.976C104.788 244.05 103.922 245.731 103.922 248.019C103.922 249.809 104.46 251.172 105.534 252.107C106.628 253.041 108.15 253.509 110.099 253.509ZM156.289 248.078C156.289 251.122 155.155 253.469 152.887 255.12C150.619 256.771 147.437 257.597 143.339 257.597C139.002 257.597 135.621 256.91 133.194 255.538V250.943C134.765 251.739 136.446 252.365 138.237 252.823C140.047 253.28 141.787 253.509 143.458 253.509C146.044 253.509 148.033 253.101 149.426 252.286C150.818 251.45 151.515 250.187 151.515 248.496C151.515 247.223 150.958 246.139 149.844 245.244C148.75 244.329 146.601 243.254 143.399 242.021C140.355 240.887 138.187 239.903 136.894 239.067C135.621 238.212 134.666 237.247 134.029 236.173C133.413 235.099 133.104 233.816 133.104 232.324C133.104 229.658 134.188 227.56 136.357 226.028C138.525 224.476 141.499 223.7 145.278 223.7C148.799 223.7 152.241 224.417 155.602 225.849L153.842 229.877C150.56 228.524 147.586 227.848 144.92 227.848C142.573 227.848 140.803 228.216 139.609 228.952C138.416 229.688 137.819 230.702 137.819 231.995C137.819 232.871 138.038 233.617 138.475 234.233C138.933 234.85 139.659 235.437 140.653 235.994C141.648 236.551 143.558 237.356 146.382 238.411C150.261 239.823 152.877 241.245 154.23 242.678C155.602 244.11 156.289 245.91 156.289 248.078ZM186.754 257V235.845C186.754 233.179 186.147 231.19 184.934 229.877C183.72 228.564 181.82 227.908 179.234 227.908C175.793 227.908 173.277 228.843 171.685 230.712C170.114 232.582 169.328 235.646 169.328 239.903V257H164.375V210.572H169.328V224.625C169.328 226.316 169.249 227.719 169.089 228.833H169.388C170.362 227.261 171.745 226.028 173.535 225.133C175.345 224.218 177.404 223.76 179.712 223.76C183.71 223.76 186.704 224.715 188.693 226.625C190.702 228.514 191.707 231.528 191.707 235.666V257H186.754ZM246.013 240.619C246.013 245.95 244.67 250.117 241.984 253.121C239.299 256.105 235.589 257.597 230.855 257.597C227.931 257.597 225.335 256.91 223.067 255.538C220.799 254.165 219.049 252.196 217.815 249.63C216.582 247.064 215.965 244.06 215.965 240.619C215.965 235.288 217.298 231.14 219.964 228.176C222.629 225.192 226.329 223.7 231.064 223.7C235.639 223.7 239.269 225.222 241.955 228.266C244.66 231.309 246.013 235.427 246.013 240.619ZM221.098 240.619C221.098 244.796 221.933 247.979 223.604 250.167C225.275 252.355 227.732 253.449 230.974 253.449C234.217 253.449 236.673 252.365 238.344 250.197C240.035 248.009 240.88 244.816 240.88 240.619C240.88 236.461 240.035 233.308 238.344 231.16C236.673 228.992 234.197 227.908 230.914 227.908C227.672 227.908 225.225 228.972 223.574 231.1C221.923 233.229 221.098 236.402 221.098 240.619ZM277.104 257V235.845C277.104 233.179 276.497 231.19 275.284 229.877C274.071 228.564 272.171 227.908 269.585 227.908C266.163 227.908 263.657 228.833 262.066 230.683C260.474 232.533 259.679 235.586 259.679 239.843V257H254.725V224.297H258.754L259.559 228.773H259.798C260.812 227.162 262.235 225.918 264.065 225.043C265.895 224.148 267.934 223.7 270.182 223.7C274.12 223.7 277.084 224.655 279.074 226.565C281.063 228.455 282.057 231.488 282.057 235.666V257H277.104ZM330.395 252.614H330.127C327.839 255.936 324.418 257.597 319.863 257.597C315.586 257.597 312.254 256.135 309.867 253.211C307.5 250.286 306.316 246.129 306.316 240.738C306.316 235.347 307.509 231.16 309.897 228.176C312.284 225.192 315.606 223.7 319.863 223.7C324.299 223.7 327.7 225.312 330.067 228.534H330.455L330.246 226.177L330.127 223.879V210.572H335.08V257H331.052L330.395 252.614ZM320.489 253.449C323.871 253.449 326.318 252.534 327.829 250.704C329.361 248.854 330.127 245.88 330.127 241.782V240.738C330.127 236.103 329.351 232.801 327.8 230.832C326.268 228.843 323.811 227.848 320.429 227.848C317.525 227.848 315.297 228.982 313.746 231.25C312.214 233.497 311.448 236.68 311.448 240.798C311.448 244.975 312.214 248.128 313.746 250.257C315.277 252.385 317.525 253.449 320.489 253.449ZM359.428 257.597C354.594 257.597 350.775 256.125 347.97 253.181C345.185 250.237 343.793 246.149 343.793 240.917C343.793 235.646 345.086 231.458 347.672 228.355C350.278 225.252 353.769 223.7 358.145 223.7C362.243 223.7 365.485 225.053 367.872 227.758C370.259 230.444 371.453 233.995 371.453 238.411V241.544H348.925C349.025 245.383 349.989 248.297 351.819 250.286C353.669 252.276 356.265 253.27 359.607 253.27C363.128 253.27 366.609 252.534 370.051 251.062V255.478C368.3 256.234 366.639 256.771 365.068 257.09C363.516 257.428 361.636 257.597 359.428 257.597ZM358.085 227.848C355.46 227.848 353.361 228.703 351.79 230.414C350.238 232.125 349.323 234.492 349.044 237.516H366.142C366.142 234.392 365.446 232.005 364.053 230.354C362.661 228.683 360.671 227.848 358.085 227.848ZM384.88 257H379.927V210.572H384.88V257ZM400.337 257H395.383V224.297H400.337V257ZM394.966 215.435C394.966 214.301 395.244 213.476 395.801 212.959C396.358 212.422 397.054 212.153 397.89 212.153C398.685 212.153 399.372 212.422 399.949 212.959C400.526 213.496 400.814 214.321 400.814 215.435C400.814 216.549 400.526 217.385 399.949 217.942C399.372 218.479 398.685 218.747 397.89 218.747C397.054 218.747 396.358 218.479 395.801 217.942C395.244 217.385 394.966 216.549 394.966 215.435ZM418.001 257L405.588 224.297H410.899L417.941 243.692C419.533 248.228 420.467 251.172 420.746 252.524H420.985C421.204 251.47 421.89 249.292 423.044 245.99C424.217 242.668 426.833 235.437 430.891 224.297H436.202L423.789 257H418.001ZM455.269 257.597C450.435 257.597 446.616 256.125 443.811 253.181C441.026 250.237 439.634 246.149 439.634 240.917C439.634 235.646 440.927 231.458 443.513 228.355C446.119 225.252 449.61 223.7 453.986 223.7C458.084 223.7 461.326 225.053 463.713 227.758C466.1 230.444 467.294 233.995 467.294 238.411V241.544H444.766C444.865 245.383 445.83 248.297 447.66 250.286C449.51 252.276 452.106 253.27 455.448 253.27C458.969 253.27 462.45 252.534 465.891 251.062V255.478C464.141 256.234 462.48 256.771 460.908 257.09C459.357 257.428 457.477 257.597 455.269 257.597ZM453.926 227.848C451.3 227.848 449.202 228.703 447.63 230.414C446.079 232.125 445.164 234.492 444.885 237.516H461.983C461.983 234.392 461.286 232.005 459.894 230.354C458.501 228.683 456.512 227.848 453.926 227.848ZM490.687 223.7C492.139 223.7 493.442 223.82 494.596 224.058L493.91 228.654C492.557 228.355 491.363 228.206 490.329 228.206C487.683 228.206 485.416 229.28 483.526 231.429C481.656 233.577 480.721 236.252 480.721 239.455V257H475.768V224.297H479.856L480.423 230.354H480.661C481.875 228.226 483.337 226.585 485.048 225.431C486.758 224.277 488.638 223.7 490.687 223.7ZM495.521 224.297H500.832L507.993 242.946C509.565 247.203 510.539 250.276 510.917 252.166H511.156C511.415 251.152 511.952 249.421 512.767 246.974C513.603 244.508 516.308 236.949 520.883 224.297H526.195L512.141 261.535C510.748 265.215 509.117 267.821 507.247 269.353C505.397 270.905 503.12 271.68 500.414 271.68C498.903 271.68 497.411 271.511 495.939 271.173V267.205C497.033 267.443 498.256 267.563 499.609 267.563C503.01 267.563 505.437 265.653 506.889 261.834L508.709 257.179L495.521 224.297Z" fill="#0D0D0D"/>
<path fill-rule="evenodd" clip-rule="evenodd" d="M223.644 68H360.996V149.171H351.288L351.966 89.6119V88.9039C351.966 86.3769 351.024 83.9531 349.347 82.165C347.67 80.3768 345.396 79.3705 343.023 79.3669H223.619V68H223.644ZM206.875 87.261H344.227V163.183H206.875V87.261Z" fill="#646464"/>
<path fill-rule="evenodd" clip-rule="evenodd" d="M321.914 99.0553C321.967 101.885 323.037 104.586 324.904 106.601C326.77 108.616 329.291 109.793 331.948 109.888V139.928C330.526 139.93 329.118 140.233 327.808 140.822C326.498 141.411 325.312 142.272 324.318 143.356C323.325 144.44 322.546 145.724 322.025 147.133C321.504 148.543 321.253 150.048 321.287 151.562H229.978C230.019 148.639 228.985 145.814 227.095 143.692C225.206 141.57 222.612 140.32 219.869 140.209V110.168C222.669 110.201 225.366 109.048 227.37 106.965C229.373 104.882 230.518 102.037 230.555 99.0553H321.914Z" fill="white"/>
<path fill-rule="evenodd" clip-rule="evenodd" d="M257.396 114.991C259.35 111.083 262.349 107.88 266.013 105.787C269.677 103.694 273.842 102.805 277.98 103.233C282.119 103.661 286.045 105.386 289.262 108.191C292.48 110.995 294.844 114.752 296.057 118.988C297.269 123.223 297.275 127.747 296.073 131.985C294.871 136.224 292.516 139.988 289.305 142.802C286.095 145.615 282.173 147.351 278.036 147.791C273.898 148.231 269.732 147.354 266.062 145.271C263.625 143.89 261.468 142.011 259.713 139.741C257.958 137.472 256.641 134.856 255.836 132.044C255.031 129.232 254.755 126.278 255.022 123.352C255.29 120.426 256.096 117.585 257.396 114.991Z" fill="#646464"/>
<path d="M276.134 141.972C275.876 141.975 275.62 141.924 275.381 141.821C275.142 141.717 274.925 141.564 274.743 141.37C274.561 141.175 274.417 140.944 274.319 140.69C274.222 140.435 274.174 140.163 274.177 139.888V137.858C273.045 137.79 271.925 137.575 270.841 137.217C270.004 136.921 269.191 136.554 268.408 136.121C268.14 135.999 267.901 135.816 267.706 135.585C267.511 135.355 267.366 135.082 267.279 134.786C267.13 134.227 267.157 133.631 267.354 133.089C267.55 132.572 267.922 132.152 268.395 131.914C268.676 131.798 268.978 131.752 269.278 131.78C269.578 131.808 269.868 131.908 270.126 132.074C270.822 132.45 271.548 132.758 272.296 132.996C273.405 133.33 274.555 133.488 275.708 133.463C276.814 133.566 277.923 133.3 278.881 132.702C279.173 132.488 279.412 132.201 279.576 131.865C279.74 131.53 279.824 131.157 279.821 130.779C279.827 130.485 279.771 130.194 279.658 129.926C279.546 129.658 279.379 129.42 279.169 129.229C278.481 128.695 277.68 128.351 276.836 128.227L273.274 127.399C269.336 126.509 267.367 124.283 267.367 120.721C267.35 119.811 267.506 118.906 267.825 118.062C268.144 117.217 268.619 116.45 269.223 115.805C270.572 114.413 272.312 113.531 274.177 113.294V111.13C274.173 110.859 274.22 110.589 274.314 110.336C274.409 110.084 274.55 109.855 274.729 109.661C274.912 109.464 275.132 109.309 275.373 109.206C275.615 109.102 275.874 109.053 276.134 109.06C276.387 109.054 276.638 109.104 276.871 109.207C277.105 109.311 277.315 109.465 277.489 109.661C277.668 109.855 277.809 110.084 277.903 110.336C277.998 110.589 278.045 110.859 278.04 111.13V113.201C278.893 113.32 279.733 113.526 280.549 113.815C281.349 114.093 282.109 114.488 282.807 114.99C283.041 115.134 283.246 115.327 283.41 115.556C283.573 115.785 283.692 116.047 283.76 116.326C283.875 116.842 283.821 117.383 283.609 117.862C283.508 118.099 283.362 118.311 283.181 118.486C283 118.66 282.787 118.794 282.556 118.877C282.261 118.969 281.951 118.993 281.646 118.949C281.342 118.906 281.049 118.795 280.787 118.624C280.177 118.304 279.538 118.049 278.881 117.862C278.061 117.641 277.218 117.538 276.372 117.555C275.332 117.488 274.299 117.778 273.425 118.383C273.093 118.616 272.822 118.933 272.636 119.307C272.449 119.68 272.354 120.098 272.359 120.52C272.351 120.81 272.404 121.097 272.512 121.363C272.62 121.628 272.782 121.865 272.986 122.056C273.642 122.568 274.403 122.906 275.206 123.045L278.806 123.873C280.513 124.165 282.101 124.988 283.371 126.237C283.863 126.799 284.246 127.458 284.498 128.178C284.75 128.898 284.866 129.664 284.838 130.431C284.866 131.331 284.715 132.227 284.395 133.06C284.075 133.893 283.594 134.645 282.982 135.267C281.632 136.586 279.941 137.442 278.128 137.724V139.888C278.133 140.16 278.087 140.43 277.992 140.682C277.897 140.935 277.756 141.164 277.576 141.357C277.403 141.555 277.193 141.711 276.96 141.817C276.727 141.923 276.475 141.976 276.222 141.972H276.134Z" fill="white"/>
</svg>
