<svg width="16" height="16" viewBox="0 0 16 16" fill="none" xmlns="http://www.w3.org/2000/svg">
<circle cx="8" cy="8" r="8" fill="white"/>
<path d="M7.00951 5.0288H8.99046C8.99046 4.76611 8.88611 4.51418 8.70036 4.32843C8.51461 4.14268 8.26268 4.03833 7.99999 4.03833C7.7373 4.03833 7.48537 4.14268 7.29962 4.32843C7.11387 4.51418 7.00951 4.76611 7.00951 5.0288V5.0288ZM6.01904 5.0288C6.01904 4.50342 6.22774 3.99956 6.59924 3.62806C6.97074 3.25656 7.47461 3.04785 7.99999 3.04785C8.52537 3.04785 9.02923 3.25656 9.40073 3.62806C9.77223 3.99956 9.98094 4.50342 9.98094 5.0288H12.4571C12.5885 5.0288 12.7144 5.08098 12.8073 5.17386C12.9002 5.26673 12.9524 5.3927 12.9524 5.52404C12.9524 5.65539 12.9002 5.78135 12.8073 5.87423C12.7144 5.9671 12.5885 6.01928 12.4571 6.01928H12.0203L11.5816 11.14C11.5394 11.6345 11.3131 12.0952 10.9476 12.4308C10.582 12.7665 10.1038 12.9527 9.60753 12.9526H6.39245C5.89617 12.9527 5.41795 12.7665 5.05241 12.4308C4.68686 12.0952 4.46061 11.6345 4.41843 11.14L3.97965 6.01928H3.54285C3.4115 6.01928 3.28553 5.9671 3.19266 5.87423C3.09978 5.78135 3.04761 5.65539 3.04761 5.52404C3.04761 5.3927 3.09978 5.26673 3.19266 5.17386C3.28553 5.08098 3.4115 5.0288 3.54285 5.0288H6.01904ZM9.4857 8.00023C9.4857 7.86889 9.43353 7.74292 9.34065 7.65005C9.24778 7.55717 9.12181 7.50499 8.99046 7.50499C8.85912 7.50499 8.73315 7.55717 8.64028 7.65005C8.5474 7.74292 8.49523 7.86889 8.49523 8.00023V9.98119C8.49523 10.1125 8.5474 10.2385 8.64028 10.3314C8.73315 10.4242 8.85912 10.4764 8.99046 10.4764C9.12181 10.4764 9.24778 10.4242 9.34065 10.3314C9.43353 10.2385 9.4857 10.1125 9.4857 9.98119V8.00023ZM7.00951 7.50499C7.14086 7.50499 7.26682 7.55717 7.3597 7.65005C7.45257 7.74292 7.50475 7.86889 7.50475 8.00023V9.98119C7.50475 10.1125 7.45257 10.2385 7.3597 10.3314C7.26682 10.4242 7.14086 10.4764 7.00951 10.4764C6.87817 10.4764 6.7522 10.4242 6.65933 10.3314C6.56645 10.2385 6.51427 10.1125 6.51427 9.98119V8.00023C6.51427 7.86889 6.56645 7.74292 6.65933 7.65005C6.7522 7.55717 6.87817 7.50499 7.00951 7.50499V7.50499ZM5.40494 11.0559C5.42604 11.3032 5.53923 11.5336 5.72211 11.7014C5.90499 11.8692 6.14422 11.9623 6.39245 11.9621H9.60753C9.85558 11.962 10.0946 11.8689 10.2772 11.7011C10.4599 11.5333 10.573 11.303 10.594 11.0559L11.0259 6.01928H4.97408L5.40593 11.0559H5.40494Z" fill="#F44444"/>
</svg>
