<svg width="28" height="28" viewBox="0 0 28 28" fill="none" xmlns="http://www.w3.org/2000/svg">
<path d="M28 14C28 21.732 21.732 28 14 28C6.26801 28 0 21.732 0 14C0 6.26801 6.26801 0 14 0C21.732 0 28 6.26801 28 14ZM1.70694 14C1.70694 20.7893 7.21073 26.2931 14 26.2931C20.7893 26.2931 26.2931 20.7893 26.2931 14C26.2931 7.21073 20.7893 1.70694 14 1.70694C7.21073 1.70694 1.70694 7.21073 1.70694 14Z" fill="#FF0000"/>
<circle cx="14.2354" cy="21.9456" r="1.25" fill="#FF0000"/>
<rect x="12.9854" y="4.46377" width="2.5" height="14" rx="1.25" fill="#FF0000"/>
</svg>
