<svg width="30" height="30" viewBox="0 0 30 30" fill="none" xmlns="http://www.w3.org/2000/svg">
<path d="M15.0002 11.2556C15.6569 11.2556 16.3071 11.385 16.9138 11.6363C17.5206 11.8876 18.0718 12.2559 18.5362 12.7203C19.0005 13.1846 19.3689 13.7359 19.6202 14.3426C19.8715 14.9493 20.0008 15.5996 20.0008 16.2563C20.0008 16.9129 19.8715 17.5632 19.6202 18.1699C19.3689 18.7766 19.0005 19.3279 18.5362 19.7922C18.0718 20.2566 17.5206 20.6249 16.9138 20.8762C16.3071 21.1275 15.6569 21.2569 15.0002 21.2569C13.6739 21.2569 12.402 20.73 11.4642 19.7922C10.5264 18.8544 9.99957 17.5825 9.99957 16.2563C9.99957 14.93 10.5264 13.6581 11.4642 12.7203C12.402 11.7825 13.6739 11.2556 15.0002 11.2556V11.2556ZM15.0002 13.1306C14.1712 13.1306 13.3762 13.4599 12.79 14.0461C12.2039 14.6323 11.8746 15.4273 11.8746 16.2563C11.8746 17.0852 12.2039 17.8802 12.79 18.4664C13.3762 19.0526 14.1712 19.3819 15.0002 19.3819C15.8292 19.3819 16.6242 19.0526 17.2103 18.4664C17.7965 17.8802 18.1258 17.0852 18.1258 16.2563C18.1258 15.4273 17.7965 14.6323 17.2103 14.0461C16.6242 13.4599 15.8292 13.1306 15.0002 13.1306ZM15.0002 6.87563C20.7677 6.87563 25.7439 10.8131 27.1258 16.3313C27.1589 16.4517 27.1675 16.5776 27.1512 16.7015C27.1349 16.8254 27.094 16.9447 27.0309 17.0526C26.9678 17.1604 26.8838 17.2546 26.7838 17.3295C26.6838 17.4044 26.5699 17.4586 26.4486 17.4888C26.3274 17.519 26.2014 17.5248 26.0779 17.5056C25.9544 17.4864 25.836 17.4428 25.7297 17.3772C25.6233 17.3116 25.5312 17.2255 25.4586 17.1238C25.386 17.0221 25.3345 16.9069 25.3071 16.785C24.7269 14.4905 23.3977 12.4552 21.53 11.0016C19.6624 9.54792 17.363 8.75904 14.9963 8.7599C12.6296 8.76076 10.3309 9.55132 8.46428 11.0063C6.59768 12.4613 5.26995 14.4976 4.69144 16.7925C4.62959 17.0321 4.4755 17.2376 4.26277 17.364C4.05004 17.4905 3.79594 17.5277 3.55588 17.4676C3.31581 17.4075 3.10927 17.2548 2.98129 17.043C2.8533 16.8312 2.81427 16.5774 2.87269 16.3369C3.55087 13.634 5.11248 11.2351 7.30962 9.52098C9.50676 7.80689 12.2135 6.87583 15.0002 6.87563Z" fill="#E94560"/>
</svg>
