<svg width="24" height="23" viewBox="0 0 24 23" fill="none" xmlns="http://www.w3.org/2000/svg">
<path d="M10.8617 3.47292L12 4.79915L13.1383 3.47292C14.1718 2.26869 15.7655 1.5 17.4 1.5C20.2694 1.5 22.5 3.72221 22.5 6.6C22.5 8.36887 21.7156 10.0968 20.0261 12.1637C18.3202 14.2508 15.8519 16.4961 12.7324 19.3248L12.7302 19.3268L12 19.9915L11.2698 19.3268L11.2676 19.3248C8.14812 16.4961 5.67984 14.2508 3.9739 12.1637C2.28444 10.0968 1.5 8.36887 1.5 6.6C1.5 3.72221 3.73064 1.5 6.6 1.5C8.23454 1.5 9.82819 2.26869 10.8617 3.47292Z" stroke="#0F3460" stroke-width="3"/>
</svg>
