<svg width="233" height="61" viewBox="0 0 233 61" fill="none" xmlns="http://www.w3.org/2000/svg">
<rect x="111.776" y="3.89915" width="120.874" height="53.2884" rx="6.06534" fill="white"/>
<path d="M156.32 13.8741H152.339L141.68 31.7166L131.02 13.8741H127.04V45.8991H130.242V18.7236L141.451 37.4811H141.908L153.117 18.7236V45.8991H156.32V13.8741ZM182.846 23.0241V27.5076C180.924 24.4424 177.676 22.4751 173.604 22.4751C167.153 22.4751 161.801 27.6906 161.801 34.4616C161.801 41.2326 167.153 46.4481 173.604 46.4481C177.676 46.4481 180.924 44.4809 182.846 41.4156V45.8991H185.865V23.0241H182.846ZM173.833 43.5201C168.755 43.5201 164.82 39.5399 164.82 34.4616C164.82 29.3834 168.755 25.4031 173.833 25.4031C178.911 25.4031 182.846 29.3834 182.846 34.4616C182.846 39.5399 178.911 43.5201 173.833 43.5201ZM195.278 26.8214V23.0241H192.258V45.8991H195.278V33.1806C195.278 27.5076 198.846 25.5861 202.506 25.5861V22.6581C199.578 22.6581 196.879 23.6189 195.278 26.8214ZM219.215 25.9521V23.0241H212.627V16.6191L209.608 17.5341V23.0241H204.804V25.9521H209.608V39.8144C209.608 45.3044 213.039 46.8141 219.215 45.8991V43.2456C214.777 43.4286 212.627 43.7489 212.627 39.8144V25.9521H219.215Z" fill="#0F3460"/>
<path d="M24.2475 13.975V40.0525L6.405 13.975H3.66V46H6.8625V19.9225L24.705 46H27.45V13.975H24.2475ZM35.808 18.2755C37.0432 18.2755 38.004 17.269 38.004 16.0795C38.004 14.89 37.0432 13.8835 35.808 13.8835C34.5727 13.8835 33.612 14.89 33.612 16.0795C33.612 17.269 34.5727 18.2755 35.808 18.2755ZM34.2982 46H37.3177V23.125H34.2982V46ZM54.4307 22.576C51.1825 22.576 48.529 23.8112 46.7447 26.6935V23.125H43.7252V46H46.7447V34.0135C46.7447 27.883 50.1302 25.504 54.1562 25.504C58.1365 25.504 60.3782 27.883 60.3782 31.9547V46H63.3977V31.9547C63.3977 26.236 60.0122 22.576 54.4307 22.576ZM71.3972 13.8835C70.1619 13.8835 69.2012 14.89 69.2012 16.0795C69.2012 17.269 70.1619 18.2755 71.3972 18.2755C72.6324 18.2755 73.5932 17.269 73.5932 16.0795C73.5932 14.89 72.6324 13.8835 71.3972 13.8835ZM69.8874 47.83C69.8874 51.7645 68.1947 53.137 64.6719 52.771V55.699C69.9332 56.1565 72.9069 53.32 72.9069 47.83V23.125H69.8874V47.83ZM99.0059 23.125V27.6085C97.0844 24.5432 93.8361 22.576 89.7644 22.576C83.3136 22.576 77.9609 27.7915 77.9609 34.5625C77.9609 41.3335 83.3136 46.549 89.7644 46.549C93.8361 46.549 97.0844 44.5817 99.0059 41.5165V46H102.025V23.125H99.0059ZM89.9931 43.621C84.9149 43.621 80.9804 39.6407 80.9804 34.5625C80.9804 29.4842 84.9149 25.504 89.9931 25.504C95.0714 25.504 99.0059 29.4842 99.0059 34.5625C99.0059 39.6407 95.0714 43.621 89.9931 43.621Z" fill="white"/>
</svg>
