<svg width="175" height="32" viewBox="0 0 175 32" fill="none" xmlns="http://www.w3.org/2000/svg">
<path d="M3.73639 17.3646L4.9908 13.9286L6.71789 9.54726C7.31176 7.95955 7.84503 6.70514 8.31771 5.78403C8.65707 5.12956 8.82675 4.669 8.82675 4.40237C8.82675 4.05089 8.54193 3.66911 7.97229 3.25704C7.59658 3.00252 7.40872 2.7783 7.40872 2.58438C7.40872 2.34199 7.78444 2.08141 8.53587 1.80265C9.17822 1.53601 9.91147 1.30574 10.7356 1.11182C11.5598 0.90578 12.2264 0.802761 12.7354 0.802761C13.7535 0.802761 14.5231 1.07546 15.0442 1.62085C15.6502 2.23897 16.3956 4.15997 17.2804 7.38386C17.644 8.69281 18.0439 9.95933 18.4802 11.1834C18.9287 12.4075 19.2983 13.2862 19.5892 13.8195C19.674 14.0134 19.8983 14.3892 20.2619 14.9467C20.6618 13.6741 21.1345 12.0076 21.6799 9.94721C22.4798 6.69908 23.213 4.50539 23.8796 3.36612C24.0857 3.00252 24.322 2.68134 24.5887 2.40259C25.0856 1.94203 25.6188 1.59055 26.1885 1.34816C26.7702 1.10576 27.352 0.984559 27.9337 0.984559C28.2852 0.984559 28.5276 1.07546 28.6609 1.25726C28.7943 1.43905 28.8609 1.76629 28.8609 2.23897C28.8609 2.59044 28.8367 2.85102 28.7882 3.0207C28.667 3.65093 28.4549 4.46903 28.1519 5.47498C27.8489 6.46881 27.4186 7.75351 26.8611 9.3291C26.3157 10.8926 25.631 12.7893 24.8068 15.0194L24.5341 15.692C24.4372 15.9829 24.3523 16.2193 24.2796 16.4011C22.8131 20.5097 21.6981 23.1761 20.9345 24.4002C20.777 24.6547 20.5891 24.891 20.3709 25.1092C19.9952 25.4849 19.6256 25.6728 19.262 25.6728C18.3287 25.6728 17.3228 24.6789 16.2441 22.6913C14.2807 19.128 12.7415 15.4678 11.6264 11.7107C11.3962 11.0077 11.2204 10.3472 11.0992 9.72906H11.0265L8.82675 16.6556C8.80251 16.7768 8.75403 16.9343 8.68131 17.1282C8.60859 17.31 8.54799 17.4858 8.49951 17.6555C8.45103 17.7888 8.39043 17.9403 8.31771 18.11C8.25711 18.2675 8.20257 18.4008 8.15409 18.5099C7.75414 19.7219 7.4269 20.637 7.17238 21.2551C6.91786 21.8611 6.66335 22.364 6.40883 22.764C6.19067 23.1397 5.86949 23.5457 5.4453 23.982C4.82718 24.5517 4.14241 25.0001 3.39098 25.3273C2.63954 25.6546 1.89417 25.8182 1.15486 25.8182C0.536744 25.8182 0.227687 25.5697 0.227687 25.0728C0.227687 24.6971 0.500385 24.0487 1.04578 23.1276C1.67601 22.0732 2.38503 20.6248 3.17282 18.7826C3.30614 18.3948 3.494 17.9221 3.73639 17.3646ZM32.8059 26.1818C32.2605 26.1454 31.7636 25.897 31.3152 25.4364C30.8668 24.9516 30.5456 24.4305 30.3517 23.873C30.1699 23.3033 30.079 22.5701 30.079 21.6732C30.079 19.6734 30.4486 17.4191 31.1879 14.9103C31.9394 12.3894 32.7878 10.5653 33.7331 9.43818C34.1088 8.9655 34.63 8.72916 35.2966 8.72916C35.9995 8.72916 36.5631 9.05034 36.9873 9.6927C37.4236 10.335 37.6418 11.1774 37.6418 12.2197C37.6418 13.7589 37.4176 15.5648 36.9691 17.6373C36.5328 19.6977 35.9147 21.8429 35.1148 24.0729C34.7997 24.9698 34.4118 25.5758 33.9513 25.8909C33.6361 26.0848 33.2665 26.1818 32.8423 26.1818H32.8059ZM34.9875 7.91107C33.8482 7.87471 33.2786 7.18994 33.2786 5.85675C33.2786 5.19016 33.4422 4.42055 33.7695 3.54791C34.1088 2.66316 34.4906 2.00869 34.9148 1.58449C35.133 1.35422 35.3511 1.1906 35.5693 1.09364C35.7995 0.996679 36.0904 0.948199 36.4419 0.948199C37.0479 0.948199 37.4903 1.0997 37.769 1.40269C38.0599 1.69357 38.2053 2.18443 38.2053 2.87526C38.2053 3.73577 38.0538 4.55386 37.7508 5.32954C37.46 6.09309 37.0661 6.71726 36.5692 7.20206C36.0722 7.67473 35.5632 7.91107 35.0421 7.91107H34.9875ZM47.2407 16.4011L48.3315 15.1285C49.4344 13.9044 50.3071 12.9954 50.9494 12.4015C51.6039 11.7955 52.1856 11.3592 52.6947 11.0925C53.2158 10.8259 53.743 10.6926 54.2763 10.6926C55.1368 10.6926 55.7428 10.9229 56.0943 11.3834C56.4458 11.844 56.6215 12.6439 56.6215 13.7832C56.6215 14.2558 56.573 14.9527 56.4761 15.8738C56.3306 17.0979 56.2579 18.2493 56.2579 19.328C56.2579 20.54 56.3185 21.5217 56.4397 22.2731C56.5246 22.7337 56.6518 23.1942 56.8215 23.6548C56.9427 24.0911 57.0033 24.3881 57.0033 24.5456C57.0033 24.7395 56.9306 24.891 56.7851 25.0001C56.4094 25.3273 55.9125 25.6122 55.2944 25.8546C54.6763 26.097 54.1551 26.2182 53.7309 26.2182C53.0401 26.2182 52.4099 25.9818 51.8402 25.5091C51.2827 25.0365 50.8464 24.382 50.5313 23.5457C50.2283 22.7095 50.0768 21.7641 50.0768 20.7097C50.0768 20.0067 50.1495 19.1765 50.2949 18.219L50.2222 18.1463C49.7011 18.7281 49.2769 19.1886 48.9496 19.528C48.6345 19.8673 48.3376 20.1885 48.0588 20.4915C46.7014 22.0429 45.55 23.4427 44.6046 24.6911C44.241 25.1758 43.9078 25.6 43.6048 25.9636C43.1563 26.4121 42.6473 26.6363 42.0776 26.6363C41.302 26.6363 40.6717 26.3454 40.1869 25.7637C39.7022 25.1819 39.4598 24.4305 39.4598 23.5094C39.4598 22.9397 39.5264 22.2428 39.6597 21.4187C39.7931 20.5945 39.9688 19.7158 40.1869 18.7826C40.4172 17.8373 40.6839 16.8677 40.9869 15.8738C41.302 14.88 41.6413 13.9347 42.0049 13.0378C42.5624 11.547 43.2412 10.3835 44.0411 9.54726C44.5865 9.00186 45.247 8.72916 46.0227 8.72916C47.2831 8.72916 47.9134 9.54726 47.9134 11.1834C47.9134 12.3833 47.6649 14.0983 47.168 16.3283L47.2407 16.4011ZM63.4753 9.6927C64.154 9.05034 64.7964 8.72916 65.4024 8.72916C66.069 8.72916 66.6083 8.95944 67.0204 9.42C67.4324 9.86843 67.6385 10.4562 67.6385 11.1834C67.6385 12.2258 67.5294 13.3105 67.3112 14.4376C67.1052 15.5648 66.7477 16.9525 66.2386 18.6008C65.7296 20.237 64.9176 22.6549 63.8025 25.8546C63.4268 26.9696 62.9844 28.0058 62.4754 28.9633C61.9664 29.9329 61.4513 30.7207 60.9301 31.3267C60.7726 31.5206 60.5665 31.6176 60.312 31.6176C59.7909 31.6176 59.3424 31.1631 58.9667 30.2541C58.591 29.3451 58.4031 28.2604 58.4031 26.9999C58.4031 25.6182 58.5304 24.4002 58.7849 23.3457C59.0515 22.2913 59.3364 21.7641 59.6394 21.7641C59.7606 21.7641 59.906 21.8368 60.0757 21.9823C60.1242 22.0065 60.1605 22.0247 60.1848 22.0368C60.209 22.0489 60.2393 22.0671 60.2757 22.0913C60.2999 21.8732 60.3241 21.6308 60.3484 21.3641C60.3726 21.0975 60.3969 20.8672 60.4211 20.6733C60.6271 18.2615 60.8635 16.3829 61.1301 15.0376C61.4089 13.6801 61.7664 12.5287 62.2027 11.5834C62.4815 10.9774 62.9057 10.3472 63.4753 9.6927ZM64.8024 7.87471C64.3055 7.85047 63.9056 7.66262 63.6026 7.31114C63.3117 6.95966 63.1662 6.48699 63.1662 5.89311C63.1662 5.1538 63.3238 4.35995 63.6389 3.51155C63.954 2.66316 64.3298 2.02081 64.7661 1.58449C65.166 1.18454 65.6629 0.984559 66.2568 0.984559C66.887 0.984559 67.3294 1.13606 67.5839 1.43905C67.8506 1.74205 67.9839 2.24503 67.9839 2.94798C67.9839 4.26905 67.6688 5.42044 67.0385 6.40215C66.4204 7.38386 65.6932 7.87471 64.857 7.87471H64.8024ZM82.8368 16.5465L82.4914 16.6556C81.6188 16.898 80.9885 17.0192 80.6007 17.0192C80.128 17.0192 79.8917 16.898 79.8917 16.6556C79.8917 16.5707 79.9886 16.3465 80.1826 15.9829C80.8613 14.9527 81.2006 13.9831 81.2006 13.0741C81.2006 12.553 81.1097 12.0803 80.9279 11.6561C80.7461 11.2198 80.5462 11.0016 80.328 11.0016C80.1341 11.0016 79.8371 11.2077 79.4372 11.6198C78.31 12.8439 77.4132 14.0983 76.7466 15.383C76.0921 16.6677 75.7649 17.813 75.7649 18.819C75.7649 19.4856 75.8982 20.037 76.1648 20.4733C76.4436 20.9096 76.789 21.1278 77.2011 21.1278C77.5525 21.1278 78.207 20.7521 79.1645 20.0007C80.1341 19.2492 81.2188 18.2554 82.4187 17.0192L82.9095 16.6192L82.8368 16.5465ZM81.746 20.7097V20.7824L81.6733 20.7097C80.5462 22.0307 79.5099 23.1155 78.5646 23.9639C77.6313 24.8001 76.7648 25.4304 75.9648 25.8546C75.1771 26.2788 74.4499 26.4909 73.7833 26.4909C72.4258 26.4909 71.3047 26.0364 70.42 25.1274C69.5352 24.2184 69.0929 23.067 69.0929 21.6732C69.0929 20.8127 69.311 19.7946 69.7473 18.619C70.1837 17.4434 70.7836 16.292 71.5471 15.1648C72.8197 13.3226 74.4196 11.7591 76.3466 10.4744C78.3343 9.15336 80.2492 8.49283 82.0914 8.49283C83.6428 8.49283 84.9154 8.814 85.9092 9.45636C86.9152 10.0866 87.4181 10.8865 87.4181 11.8561C87.4181 12.5712 87.1697 13.3287 86.6728 14.1286C87.3272 14.1286 87.7393 14.2013 87.909 14.3467C88.0787 14.48 88.1635 14.8012 88.1635 15.3103C88.1635 15.2618 88.1332 15.5102 88.0726 16.0556C87.9999 17.2555 87.9635 18.3766 87.9635 19.4189C87.9635 19.9643 87.9696 20.3764 87.9817 20.6551C87.9938 20.9339 88.0181 21.2551 88.0544 21.6187C88.0908 21.9823 88.1271 22.2731 88.1635 22.4913C88.2605 23.0609 88.418 23.6245 88.6362 24.182C87.909 24.8971 87.2121 25.4243 86.5455 25.7637C85.8789 26.0909 85.2002 26.2545 84.5094 26.2545C82.6429 26.2545 81.7097 24.6911 81.7097 21.5641C81.7097 21.2005 81.7218 20.9157 81.746 20.7097Z" fill="#E94560"/>
<path d="M111.197 16.5101L111.561 15.692C114.421 9.23214 116.494 5.0326 117.778 3.09342C117.984 2.82678 118.16 2.62074 118.306 2.4753C118.451 2.31775 118.615 2.17837 118.797 2.05717C118.99 1.93597 119.239 1.81477 119.542 1.69357C120.415 1.31786 121.542 1.13 122.923 1.13C123.638 1.13 124.087 1.1906 124.269 1.3118C124.463 1.43299 124.56 1.70569 124.56 2.12989C124.56 2.45712 124.547 2.8086 124.523 3.18432C124.426 5.3659 124.378 6.91724 124.378 7.83835C124.378 10.1654 124.535 12.3712 124.85 14.4558C125.056 15.6193 125.359 16.801 125.759 18.0009C126.184 19.0674 126.59 19.8855 126.977 20.4552C127.438 21.0854 127.826 21.5459 128.141 21.8368C128.529 22.2247 128.723 22.5216 128.723 22.7276C128.723 23.1033 128.402 23.6124 127.759 24.2547C126.681 25.297 125.602 25.8182 124.523 25.8182C123.008 25.8182 121.633 25.1698 120.396 23.873C119.766 23.2427 119.263 22.5458 118.887 21.7823C118.524 21.0066 118.251 20.0552 118.069 18.928C117.888 17.7888 117.766 16.3465 117.706 14.6012C117.621 12.7105 117.572 11.644 117.56 11.4016H117.488C116.724 12.8681 116.088 14.0922 115.579 15.0739C115.07 16.0556 114.652 16.8677 114.324 17.51C114.009 18.1524 113.633 18.922 113.197 19.8189C111.815 22.6792 110.913 24.4062 110.488 25.0001C110.464 25.0243 110.416 25.0789 110.343 25.1637C110.27 25.2486 110.204 25.3152 110.143 25.3637C109.937 25.5576 109.701 25.7091 109.434 25.8182C109.179 25.9152 108.961 25.9636 108.779 25.9636C108.27 25.9636 107.707 25.6485 107.089 25.0183C106.483 24.3759 105.949 23.5518 105.489 22.5458C105.016 21.4793 104.628 20.3946 104.325 19.2916C104.034 18.1766 103.774 16.8616 103.544 15.3466C103.325 13.8195 103.132 11.9591 102.962 9.76541H102.889C102.526 10.5653 102.253 11.1653 102.071 11.5652C101.889 11.9652 101.611 12.5833 101.235 13.4196C100.859 14.2558 100.641 14.7406 100.58 14.8739C100.083 15.9769 99.5623 17.0919 99.0169 18.219C98.4715 19.3462 98.0291 20.2128 97.6897 20.8187C97.3625 21.4247 96.9989 22.0247 96.5989 22.6186C96.4171 22.8973 96.096 23.2912 95.6354 23.8002C94.9203 24.479 94.1386 25.0122 93.2902 25.4001C92.4418 25.7758 91.6359 25.9636 90.8723 25.9636C90.5814 25.9636 90.3269 25.8909 90.1087 25.7455C89.8906 25.6 89.7815 25.4122 89.7815 25.1819C89.7815 24.9759 89.9451 24.7032 90.2724 24.3638C90.4542 24.1457 90.8481 23.5881 91.4541 22.6913L92.5085 21.0551C93.163 20.0855 94.1507 18.3463 95.4718 15.8375L96.3444 14.2013C98.3806 10.2987 99.7562 7.63232 100.471 6.20217C101.186 4.7599 101.544 3.92363 101.544 3.69335C101.544 3.43884 101.362 3.15402 100.998 2.8389C100.72 2.60862 100.58 2.40865 100.58 2.23897C100.58 1.97233 100.932 1.72387 101.635 1.49359C102.338 1.2512 103.101 1.13 103.925 1.13C105.586 1.13 106.768 1.49965 107.47 2.23897C107.907 2.69952 108.313 3.60851 108.689 4.96594C109.064 6.31125 109.44 8.26861 109.816 10.838C109.84 10.9835 109.858 11.0986 109.87 11.1834C109.882 11.2562 109.894 11.3228 109.907 11.3834C109.919 11.444 109.925 11.5228 109.925 11.6198C109.997 11.9591 110.034 12.1833 110.034 12.2924C110.288 13.8559 110.482 14.8679 110.616 15.3284C110.749 15.7769 110.943 16.1708 111.197 16.5101ZM143.703 16.5465L143.357 16.6556C142.485 16.898 141.855 17.0192 141.467 17.0192C140.994 17.0192 140.758 16.898 140.758 16.6556C140.758 16.5707 140.855 16.3465 141.049 15.9829C141.727 14.9527 142.067 13.9831 142.067 13.0741C142.067 12.553 141.976 12.0803 141.794 11.6561C141.612 11.2198 141.412 11.0016 141.194 11.0016C141 11.0016 140.703 11.2077 140.303 11.6198C139.176 12.8439 138.279 14.0983 137.613 15.383C136.958 16.6677 136.631 17.813 136.631 18.819C136.631 19.4856 136.764 20.037 137.031 20.4733C137.31 20.9096 137.655 21.1278 138.067 21.1278C138.419 21.1278 139.073 20.7521 140.031 20.0007C141 19.2492 142.085 18.2554 143.285 17.0192L143.776 16.6192L143.703 16.5465ZM142.612 20.7097V20.7824L142.539 20.7097C141.412 22.0307 140.376 23.1155 139.431 23.9639C138.497 24.8001 137.631 25.4304 136.831 25.8546C136.043 26.2788 135.316 26.4909 134.649 26.4909C133.292 26.4909 132.171 26.0364 131.286 25.1274C130.401 24.2184 129.959 23.067 129.959 21.6732C129.959 20.8127 130.177 19.7946 130.613 18.619C131.05 17.4434 131.65 16.292 132.413 15.1648C133.686 13.3226 135.286 11.7591 137.213 10.4744C139.2 9.15336 141.115 8.49283 142.958 8.49283C144.509 8.49283 145.781 8.814 146.775 9.45636C147.781 10.0866 148.284 10.8865 148.284 11.8561C148.284 12.5712 148.036 13.3287 147.539 14.1286C148.193 14.1286 148.605 14.2013 148.775 14.3467C148.945 14.48 149.03 14.8012 149.03 15.3103C149.03 15.2618 148.999 15.5102 148.939 16.0556C148.866 17.2555 148.83 18.3766 148.83 19.4189C148.83 19.9643 148.836 20.3764 148.848 20.6551C148.86 20.9339 148.884 21.2551 148.92 21.6187C148.957 21.9823 148.993 22.2731 149.03 22.4913C149.127 23.0609 149.284 23.6245 149.502 24.182C148.775 24.8971 148.078 25.4243 147.412 25.7637C146.745 26.0909 146.066 26.2545 145.375 26.2545C143.509 26.2545 142.576 24.6911 142.576 21.5641C142.576 21.2005 142.588 20.9157 142.612 20.7097ZM156.865 20.4552L156.792 20.8187C156.792 21.0248 156.768 21.3217 156.72 21.7096C156.671 22.3034 156.605 22.7882 156.52 23.1639C156.435 23.5397 156.308 23.8548 156.138 24.1093C155.968 24.3517 155.738 24.6123 155.447 24.891C154.562 25.7031 153.671 26.1091 152.775 26.1091C152.047 26.1091 151.508 25.8424 151.157 25.3092C150.817 24.7759 150.648 23.9154 150.648 22.7276C150.648 21.7823 150.751 20.6188 150.957 19.2371C151.175 17.8433 151.435 16.595 151.738 15.4921L151.884 15.0194C151.884 14.9467 151.92 14.7952 151.993 14.5649C152.441 12.9166 152.853 11.6985 153.229 10.9107C153.605 10.1108 154.059 9.46848 154.593 8.98368C155.065 8.60797 155.599 8.42011 156.192 8.42011C157.053 8.42011 157.574 8.94126 157.756 9.98357C157.926 9.83813 158.089 9.66846 158.247 9.47454C158.598 9.05034 158.871 8.77158 159.065 8.63827C159.259 8.49283 159.483 8.42011 159.737 8.42011C160.78 8.42011 161.301 9.4503 161.301 11.5107C161.301 12.6378 161.18 13.7286 160.937 14.783C160.695 15.8375 160.386 16.698 160.01 17.3646C159.647 18.0312 159.283 18.3645 158.919 18.3645C158.519 18.3645 158.319 17.607 158.319 16.092C158.319 15.2921 158.271 14.6679 158.174 14.2195C158.089 13.7589 157.95 13.4014 157.756 13.1469C157.392 13.8256 157.156 15.3769 157.047 17.8009C156.962 19.2068 156.901 20.0916 156.865 20.4552ZM166.228 8.42011L166.3 8.20195C167.1 5.94765 167.791 4.35995 168.373 3.43884C168.652 3.00252 169.039 2.61468 169.536 2.27533C170.47 1.68145 171.348 1.38452 172.172 1.38452C172.657 1.38452 173.027 1.49359 173.281 1.71175C173.536 1.92991 173.663 2.24503 173.663 2.6571C173.663 2.93586 173.481 3.50549 173.118 4.36601C172.5 5.79615 172.039 7.1354 171.736 8.38375C171.942 8.40799 172.142 8.44435 172.336 8.49283C173.063 8.60191 173.542 8.72916 173.772 8.8746C174.003 9.00792 174.118 9.25638 174.118 9.61998C174.118 10.2623 173.954 10.8562 173.627 11.4016C173.3 11.947 172.869 12.347 172.336 12.6015C171.936 12.7833 171.288 12.9045 170.391 12.9651C170.233 13.4377 170.058 14.0862 169.864 14.9103C169.755 15.6375 169.633 16.6434 169.5 17.9282C169.427 18.4008 169.391 18.8432 169.391 19.2553C169.391 21.1702 170.318 22.1277 172.172 22.1277H172.282H172.336C172.554 22.1277 172.663 22.1641 172.663 22.2368C172.663 22.4307 172.457 22.7579 172.045 23.2185C171.633 23.679 171.179 24.0851 170.682 24.4365C170.148 24.8001 169.567 25.091 168.936 25.3092C168.306 25.5273 167.737 25.6364 167.228 25.6364C165.955 25.6364 164.919 25.2061 164.119 24.3456C163.331 23.4851 162.937 22.3459 162.937 20.9278C162.937 20.3218 163.04 19.528 163.246 18.5463C163.464 17.5646 163.798 16.2496 164.246 14.6012C164.319 14.3104 164.398 14.0074 164.482 13.6923C164.567 13.365 164.616 13.1711 164.628 13.1105C164.143 13.0984 163.798 12.9954 163.592 12.8014C163.386 12.6075 163.283 12.2924 163.283 11.8561C163.283 11.0925 163.573 10.3714 164.155 9.6927C164.749 9.01398 165.44 8.58979 166.228 8.42011Z" fill="black" fill-opacity="0.75"/>
</svg>
