<svg width="175" height="32" viewBox="0 0 175 32" fill="none" xmlns="http://www.w3.org/2000/svg">
<path d="M4.39952 17.3646L5.65393 13.9286L7.38101 9.54726C7.97488 7.95955 8.50816 6.70514 8.98083 5.78403C9.32019 5.12956 9.48987 4.669 9.48987 4.40237C9.48987 4.05089 9.20505 3.66911 8.63542 3.25704C8.2597 3.00252 8.07184 2.7783 8.07184 2.58438C8.07184 2.34199 8.44756 2.08141 9.19899 1.80265C9.84135 1.53601 10.5746 1.30574 11.3988 1.11182C12.2229 0.90578 12.8895 0.802761 13.3985 0.802761C14.4166 0.802761 15.1862 1.07546 15.7074 1.62085C16.3134 2.23897 17.0587 4.15997 17.9435 7.38386C18.3071 8.69281 18.707 9.95933 19.1434 11.1834C19.5918 12.4075 19.9614 13.2862 20.2523 13.8195C20.3372 14.0134 20.5614 14.3892 20.925 14.9467C21.3249 13.6741 21.7976 12.0076 22.343 9.94721C23.1429 6.69908 23.8762 4.50539 24.5428 3.36612C24.7488 3.00252 24.9851 2.68134 25.2518 2.40259C25.7487 1.94203 26.282 1.59055 26.8516 1.34816C27.4334 1.10576 28.0151 0.984559 28.5969 0.984559C28.9483 0.984559 29.1907 1.07546 29.3241 1.25726C29.4574 1.43905 29.524 1.76629 29.524 2.23897C29.524 2.59044 29.4998 2.85102 29.4513 3.0207C29.3301 3.65093 29.118 4.46903 28.815 5.47498C28.512 6.46881 28.0818 7.75351 27.5243 9.3291C26.9789 10.8926 26.2941 12.7893 25.4699 15.0194L25.1972 15.692C25.1003 15.9829 25.0154 16.2193 24.9427 16.4011C23.4762 20.5097 22.3612 23.1761 21.5976 24.4002C21.4401 24.6547 21.2522 24.891 21.0341 25.1092C20.6583 25.4849 20.2887 25.6728 19.9251 25.6728C18.9919 25.6728 17.9859 24.6789 16.9072 22.6913C14.9438 19.128 13.4046 15.4678 12.2896 11.7107C12.0593 11.0077 11.8835 10.3472 11.7623 9.72906H11.6896L9.48987 16.6556C9.46563 16.7768 9.41715 16.9343 9.34443 17.1282C9.27171 17.31 9.21111 17.4858 9.16263 17.6555C9.11415 17.7888 9.05355 17.9403 8.98083 18.11C8.92023 18.2675 8.8657 18.4008 8.81722 18.5099C8.41726 19.7219 8.09002 20.637 7.83551 21.2551C7.58099 21.8611 7.32647 22.364 7.07195 22.764C6.85379 23.1397 6.53262 23.5457 6.10842 23.982C5.49031 24.5517 4.80553 25.0001 4.0541 25.3273C3.30267 25.6546 2.5573 25.8182 1.81798 25.8182C1.19987 25.8182 0.890811 25.5697 0.890811 25.0728C0.890811 24.6971 1.16351 24.0487 1.7089 23.1276C2.33914 22.0732 3.04815 20.6248 3.83594 18.7826C3.96926 18.3948 4.15712 17.9221 4.39952 17.3646ZM33.4691 26.1818C32.9237 26.1454 32.4267 25.897 31.9783 25.4364C31.5299 24.9516 31.2087 24.4305 31.0148 23.873C30.833 23.3033 30.7421 22.5701 30.7421 21.6732C30.7421 19.6734 31.1117 17.4191 31.8511 14.9103C32.6025 12.3894 33.4509 10.5653 34.3962 9.43818C34.7719 8.9655 35.2931 8.72916 35.9597 8.72916C36.6626 8.72916 37.2262 9.05034 37.6504 9.6927C38.0867 10.335 38.3049 11.1774 38.3049 12.2197C38.3049 13.7589 38.0807 15.5648 37.6322 17.6373C37.1959 19.6977 36.5778 21.8429 35.7779 24.0729C35.4628 24.9698 35.0749 25.5758 34.6144 25.8909C34.2993 26.0848 33.9296 26.1818 33.5054 26.1818H33.4691ZM35.6506 7.91107C34.5114 7.87471 33.9417 7.18994 33.9417 5.85675C33.9417 5.19016 34.1054 4.42055 34.4326 3.54791C34.7719 2.66316 35.1537 2.00869 35.5779 1.58449C35.7961 1.35422 36.0142 1.1906 36.2324 1.09364C36.4627 0.996679 36.7535 0.948199 37.105 0.948199C37.711 0.948199 38.1534 1.0997 38.4322 1.40269C38.723 1.69357 38.8685 2.18443 38.8685 2.87526C38.8685 3.73577 38.717 4.55386 38.414 5.32954C38.1231 6.09309 37.7292 6.71726 37.2323 7.20206C36.7354 7.67473 36.2263 7.91107 35.7052 7.91107H35.6506ZM47.9038 16.4011L48.9946 15.1285C50.0975 13.9044 50.9702 12.9954 51.6125 12.4015C52.267 11.7955 52.8488 11.3592 53.3578 11.0925C53.8789 10.8259 54.4062 10.6926 54.9394 10.6926C55.7999 10.6926 56.4059 10.9229 56.7574 11.3834C57.1089 11.844 57.2846 12.6439 57.2846 13.7832C57.2846 14.2558 57.2362 14.9527 57.1392 15.8738C56.9938 17.0979 56.921 18.2493 56.921 19.328C56.921 20.54 56.9816 21.5217 57.1028 22.2731C57.1877 22.7337 57.3149 23.1942 57.4846 23.6548C57.6058 24.0911 57.6664 24.3881 57.6664 24.5456C57.6664 24.7395 57.5937 24.891 57.4483 25.0001C57.0725 25.3273 56.5756 25.6122 55.9575 25.8546C55.3394 26.097 54.8182 26.2182 54.394 26.2182C53.7032 26.2182 53.073 25.9818 52.5033 25.5091C51.9458 25.0365 51.5095 24.382 51.1944 23.5457C50.8914 22.7095 50.7399 21.7641 50.7399 20.7097C50.7399 20.0067 50.8126 19.1765 50.9581 18.219L50.8853 18.1463C50.3642 18.7281 49.94 19.1886 49.6127 19.528C49.2976 19.8673 49.0007 20.1885 48.7219 20.4915C47.3645 22.0429 46.2131 23.4427 45.2678 24.6911C44.9042 25.1758 44.5709 25.6 44.2679 25.9636C43.8194 26.4121 43.3104 26.6363 42.7408 26.6363C41.9651 26.6363 41.3349 26.3454 40.8501 25.7637C40.3653 25.1819 40.1229 24.4305 40.1229 23.5094C40.1229 22.9397 40.1895 22.2428 40.3229 21.4187C40.4562 20.5945 40.6319 19.7158 40.8501 18.7826C41.0803 17.8373 41.347 16.8677 41.65 15.8738C41.9651 14.88 42.3045 13.9347 42.6681 13.0378C43.2256 11.547 43.9043 10.3835 44.7042 9.54726C45.2496 9.00186 45.9101 8.72916 46.6858 8.72916C47.9463 8.72916 48.5765 9.54726 48.5765 11.1834C48.5765 12.3833 48.328 14.0983 47.8311 16.3283L47.9038 16.4011ZM64.1384 9.6927C64.8171 9.05034 65.4595 8.72916 66.0655 8.72916C66.7321 8.72916 67.2714 8.95944 67.6835 9.42C68.0956 9.86843 68.3016 10.4562 68.3016 11.1834C68.3016 12.2258 68.1925 13.3105 67.9744 14.4376C67.7683 15.5648 67.4108 16.9525 66.9018 18.6008C66.3927 20.237 65.5807 22.6549 64.4657 25.8546C64.0899 26.9696 63.6476 28.0058 63.1385 28.9633C62.6295 29.9329 62.1144 30.7207 61.5933 31.3267C61.4357 31.5206 61.2297 31.6176 60.9751 31.6176C60.454 31.6176 60.0055 31.1631 59.6298 30.2541C59.2541 29.3451 59.0663 28.2604 59.0663 26.9999C59.0663 25.6182 59.1935 24.4002 59.448 23.3457C59.7147 22.2913 59.9995 21.7641 60.3025 21.7641C60.4237 21.7641 60.5691 21.8368 60.7388 21.9823C60.7873 22.0065 60.8236 22.0247 60.8479 22.0368C60.8721 22.0489 60.9024 22.0671 60.9388 22.0913C60.963 21.8732 60.9873 21.6308 61.0115 21.3641C61.0357 21.0975 61.06 20.8672 61.0842 20.6733C61.2903 18.2615 61.5266 16.3829 61.7932 15.0376C62.072 13.6801 62.4295 12.5287 62.8658 11.5834C63.1446 10.9774 63.5688 10.3472 64.1384 9.6927ZM65.4656 7.87471C64.9686 7.85047 64.5687 7.66262 64.2657 7.31114C63.9748 6.95966 63.8294 6.48699 63.8294 5.89311C63.8294 5.1538 63.9869 4.35995 64.302 3.51155C64.6172 2.66316 64.9929 2.02081 65.4292 1.58449C65.8292 1.18454 66.3261 0.984559 66.9199 0.984559C67.5502 0.984559 67.9925 1.13606 68.2471 1.43905C68.5137 1.74205 68.647 2.24503 68.647 2.94798C68.647 4.26905 68.3319 5.42044 67.7017 6.40215C67.0836 7.38386 66.3564 7.87471 65.5201 7.87471H65.4656ZM83.4999 16.5465L83.1545 16.6556C82.2819 16.898 81.6517 17.0192 81.2638 17.0192C80.7911 17.0192 80.5548 16.898 80.5548 16.6556C80.5548 16.5707 80.6518 16.3465 80.8457 15.9829C81.5244 14.9527 81.8638 13.9831 81.8638 13.0741C81.8638 12.553 81.7729 12.0803 81.5911 11.6561C81.4093 11.2198 81.2093 11.0016 80.9911 11.0016C80.7972 11.0016 80.5003 11.2077 80.1003 11.6198C78.9732 12.8439 78.0763 14.0983 77.4097 15.383C76.7552 16.6677 76.428 17.813 76.428 18.819C76.428 19.4856 76.5613 20.037 76.8279 20.4733C77.1067 20.9096 77.4521 21.1278 77.8642 21.1278C78.2157 21.1278 78.8701 20.7521 79.8276 20.0007C80.7972 19.2492 81.8819 18.2554 83.0818 17.0192L83.5727 16.6192L83.4999 16.5465ZM82.4092 20.7097V20.7824L82.3364 20.7097C81.2093 22.0307 80.173 23.1155 79.2277 23.9639C78.2945 24.8001 77.4279 25.4304 76.628 25.8546C75.8402 26.2788 75.113 26.4909 74.4464 26.4909C73.089 26.4909 71.9679 26.0364 71.0831 25.1274C70.1984 24.2184 69.756 23.067 69.756 21.6732C69.756 20.8127 69.9742 19.7946 70.4105 18.619C70.8468 17.4434 71.4467 16.292 72.2103 15.1648C73.4829 13.3226 75.0827 11.7591 77.0097 10.4744C78.9974 9.15336 80.9123 8.49283 82.7546 8.49283C84.3059 8.49283 85.5785 8.814 86.5723 9.45636C87.5783 10.0866 88.0813 10.8865 88.0813 11.8561C88.0813 12.5712 87.8328 13.3287 87.3359 14.1286C87.9904 14.1286 88.4024 14.2013 88.5721 14.3467C88.7418 14.48 88.8266 14.8012 88.8266 15.3103C88.8266 15.2618 88.7963 15.5102 88.7357 16.0556C88.663 17.2555 88.6267 18.3766 88.6267 19.4189C88.6267 19.9643 88.6327 20.3764 88.6448 20.6551C88.657 20.9339 88.6812 21.2551 88.7176 21.6187C88.7539 21.9823 88.7903 22.2731 88.8266 22.4913C88.9236 23.0609 89.0811 23.6245 89.2993 24.182C88.5721 24.8971 87.8752 25.4243 87.2086 25.7637C86.542 26.0909 85.8633 26.2545 85.1725 26.2545C83.306 26.2545 82.3728 24.6911 82.3728 21.5641C82.3728 21.2005 82.3849 20.9157 82.4092 20.7097Z" fill="#E94560"/>
<path d="M111.86 16.5101L112.224 15.692C115.084 9.23214 117.157 5.0326 118.442 3.09342C118.648 2.82678 118.823 2.62074 118.969 2.4753C119.114 2.31775 119.278 2.17837 119.46 2.05717C119.654 1.93597 119.902 1.81477 120.205 1.69357C121.078 1.31786 122.205 1.13 123.586 1.13C124.302 1.13 124.75 1.1906 124.932 1.3118C125.126 1.43299 125.223 1.70569 125.223 2.12989C125.223 2.45712 125.211 2.8086 125.186 3.18432C125.089 5.3659 125.041 6.91724 125.041 7.83835C125.041 10.1654 125.198 12.3712 125.514 14.4558C125.72 15.6193 126.023 16.801 126.423 18.0009C126.847 19.0674 127.253 19.8855 127.641 20.4552C128.101 21.0854 128.489 21.5459 128.804 21.8368C129.192 22.2247 129.386 22.5216 129.386 22.7276C129.386 23.1033 129.065 23.6124 128.422 24.2547C127.344 25.297 126.265 25.8182 125.186 25.8182C123.671 25.8182 122.296 25.1698 121.059 23.873C120.429 23.2427 119.926 22.5458 119.551 21.7823C119.187 21.0066 118.914 20.0552 118.732 18.928C118.551 17.7888 118.429 16.3465 118.369 14.6012C118.284 12.7105 118.236 11.644 118.223 11.4016H118.151C117.387 12.8681 116.751 14.0922 116.242 15.0739C115.733 16.0556 115.315 16.8677 114.987 17.51C114.672 18.1524 114.297 18.922 113.86 19.8189C112.479 22.6792 111.576 24.4062 111.151 25.0001C111.127 25.0243 111.079 25.0789 111.006 25.1637C110.933 25.2486 110.867 25.3152 110.806 25.3637C110.6 25.5576 110.364 25.7091 110.097 25.8182C109.843 25.9152 109.624 25.9636 109.443 25.9636C108.934 25.9636 108.37 25.6485 107.752 25.0183C107.146 24.3759 106.613 23.5518 106.152 22.5458C105.679 21.4793 105.291 20.3946 104.988 19.2916C104.698 18.1766 104.437 16.8616 104.207 15.3466C103.989 13.8195 103.795 11.9591 103.625 9.76541H103.552C103.189 10.5653 102.916 11.1653 102.734 11.5652C102.552 11.9652 102.274 12.5833 101.898 13.4196C101.522 14.2558 101.304 14.7406 101.243 14.8739C100.747 15.9769 100.225 17.0919 99.68 18.219C99.1346 19.3462 98.6922 20.2128 98.3529 20.8187C98.0256 21.4247 97.662 22.0247 97.2621 22.6186C97.0803 22.8973 96.7591 23.2912 96.2985 23.8002C95.5835 24.479 94.8017 25.0122 93.9533 25.4001C93.105 25.7758 92.299 25.9636 91.5354 25.9636C91.2445 25.9636 90.99 25.8909 90.7719 25.7455C90.5537 25.6 90.4446 25.4122 90.4446 25.1819C90.4446 24.9759 90.6083 24.7032 90.9355 24.3638C91.1173 24.1457 91.5112 23.5881 92.1172 22.6913L93.1716 21.0551C93.8261 20.0855 94.8139 18.3463 96.1349 15.8375L97.0076 14.2013C99.0437 10.2987 100.419 7.63232 101.134 6.20217C101.849 4.7599 102.207 3.92363 102.207 3.69335C102.207 3.43884 102.025 3.15402 101.662 2.8389C101.383 2.60862 101.243 2.40865 101.243 2.23897C101.243 1.97233 101.595 1.72387 102.298 1.49359C103.001 1.2512 103.764 1.13 104.589 1.13C106.249 1.13 107.431 1.49965 108.134 2.23897C108.57 2.69952 108.976 3.60851 109.352 4.96594C109.727 6.31125 110.103 8.26861 110.479 10.838C110.503 10.9835 110.521 11.0986 110.533 11.1834C110.545 11.2562 110.558 11.3228 110.57 11.3834C110.582 11.444 110.588 11.5228 110.588 11.6198C110.661 11.9591 110.697 12.1833 110.697 12.2924C110.951 13.8559 111.145 14.8679 111.279 15.3284C111.412 15.7769 111.606 16.1708 111.86 16.5101ZM144.366 16.5465L144.021 16.6556C143.148 16.898 142.518 17.0192 142.13 17.0192C141.657 17.0192 141.421 16.898 141.421 16.6556C141.421 16.5707 141.518 16.3465 141.712 15.9829C142.39 14.9527 142.73 13.9831 142.73 13.0741C142.73 12.553 142.639 12.0803 142.457 11.6561C142.275 11.2198 142.075 11.0016 141.857 11.0016C141.663 11.0016 141.366 11.2077 140.966 11.6198C139.839 12.8439 138.942 14.0983 138.276 15.383C137.621 16.6677 137.294 17.813 137.294 18.819C137.294 19.4856 137.427 20.037 137.694 20.4733C137.973 20.9096 138.318 21.1278 138.73 21.1278C139.082 21.1278 139.736 20.7521 140.694 20.0007C141.663 19.2492 142.748 18.2554 143.948 17.0192L144.439 16.6192L144.366 16.5465ZM143.275 20.7097V20.7824L143.202 20.7097C142.075 22.0307 141.039 23.1155 140.094 23.9639C139.161 24.8001 138.294 25.4304 137.494 25.8546C136.706 26.2788 135.979 26.4909 135.312 26.4909C133.955 26.4909 132.834 26.0364 131.949 25.1274C131.064 24.2184 130.622 23.067 130.622 21.6732C130.622 20.8127 130.84 19.7946 131.277 18.619C131.713 17.4434 132.313 16.292 133.076 15.1648C134.349 13.3226 135.949 11.7591 137.876 10.4744C139.863 9.15336 141.778 8.49283 143.621 8.49283C145.172 8.49283 146.445 8.814 147.438 9.45636C148.444 10.0866 148.947 10.8865 148.947 11.8561C148.947 12.5712 148.699 13.3287 148.202 14.1286C148.856 14.1286 149.268 14.2013 149.438 14.3467C149.608 14.48 149.693 14.8012 149.693 15.3103C149.693 15.2618 149.662 15.5102 149.602 16.0556C149.529 17.2555 149.493 18.3766 149.493 19.4189C149.493 19.9643 149.499 20.3764 149.511 20.6551C149.523 20.9339 149.547 21.2551 149.584 21.6187C149.62 21.9823 149.656 22.2731 149.693 22.4913C149.79 23.0609 149.947 23.6245 150.165 24.182C149.438 24.8971 148.741 25.4243 148.075 25.7637C147.408 26.0909 146.729 26.2545 146.039 26.2545C144.172 26.2545 143.239 24.6911 143.239 21.5641C143.239 21.2005 143.251 20.9157 143.275 20.7097ZM157.528 20.4552L157.455 20.8187C157.455 21.0248 157.431 21.3217 157.383 21.7096C157.334 22.3034 157.268 22.7882 157.183 23.1639C157.098 23.5397 156.971 23.8548 156.801 24.1093C156.631 24.3517 156.401 24.6123 156.11 24.891C155.225 25.7031 154.335 26.1091 153.438 26.1091C152.711 26.1091 152.171 25.8424 151.82 25.3092C151.48 24.7759 151.311 23.9154 151.311 22.7276C151.311 21.7823 151.414 20.6188 151.62 19.2371C151.838 17.8433 152.098 16.595 152.401 15.4921L152.547 15.0194C152.547 14.9467 152.583 14.7952 152.656 14.5649C153.104 12.9166 153.517 11.6985 153.892 10.9107C154.268 10.1108 154.722 9.46848 155.256 8.98368C155.728 8.60797 156.262 8.42011 156.856 8.42011C157.716 8.42011 158.237 8.94126 158.419 9.98357C158.589 9.83813 158.752 9.66846 158.91 9.47454C159.261 9.05034 159.534 8.77158 159.728 8.63827C159.922 8.49283 160.146 8.42011 160.401 8.42011C161.443 8.42011 161.964 9.4503 161.964 11.5107C161.964 12.6378 161.843 13.7286 161.6 14.783C161.358 15.8375 161.049 16.698 160.673 17.3646C160.31 18.0312 159.946 18.3645 159.583 18.3645C159.183 18.3645 158.983 17.607 158.983 16.092C158.983 15.2921 158.934 14.6679 158.837 14.2195C158.752 13.7589 158.613 13.4014 158.419 13.1469C158.055 13.8256 157.819 15.3769 157.71 17.8009C157.625 19.2068 157.565 20.0916 157.528 20.4552ZM166.891 8.42011L166.964 8.20195C167.763 5.94765 168.454 4.35995 169.036 3.43884C169.315 3.00252 169.703 2.61468 170.2 2.27533C171.133 1.68145 172.011 1.38452 172.836 1.38452C173.32 1.38452 173.69 1.49359 173.945 1.71175C174.199 1.92991 174.326 2.24503 174.326 2.6571C174.326 2.93586 174.145 3.50549 173.781 4.36601C173.163 5.79615 172.702 7.1354 172.399 8.38375C172.605 8.40799 172.805 8.44435 172.999 8.49283C173.726 8.60191 174.205 8.72916 174.435 8.8746C174.666 9.00792 174.781 9.25638 174.781 9.61998C174.781 10.2623 174.617 10.8562 174.29 11.4016C173.963 11.947 173.533 12.347 172.999 12.6015C172.599 12.7833 171.951 12.9045 171.054 12.9651C170.896 13.4377 170.721 14.0862 170.527 14.9103C170.418 15.6375 170.296 16.6434 170.163 17.9282C170.09 18.4008 170.054 18.8432 170.054 19.2553C170.054 21.1702 170.981 22.1277 172.836 22.1277H172.945H172.999C173.217 22.1277 173.326 22.1641 173.326 22.2368C173.326 22.4307 173.12 22.7579 172.708 23.2185C172.296 23.679 171.842 24.0851 171.345 24.4365C170.812 24.8001 170.23 25.091 169.6 25.3092C168.969 25.5273 168.4 25.6364 167.891 25.6364C166.618 25.6364 165.582 25.2061 164.782 24.3456C163.994 23.4851 163.6 22.3459 163.6 20.9278C163.6 20.3218 163.703 19.528 163.909 18.5463C164.127 17.5646 164.461 16.2496 164.909 14.6012C164.982 14.3104 165.061 14.0074 165.146 13.6923C165.23 13.365 165.279 13.1711 165.291 13.1105C164.806 13.0984 164.461 12.9954 164.255 12.8014C164.049 12.6075 163.946 12.2924 163.946 11.8561C163.946 11.0925 164.237 10.3714 164.818 9.6927C165.412 9.01398 166.103 8.58979 166.891 8.42011Z" fill="#0F3460"/>
</svg>
