<svg width="32" height="25" viewBox="0 0 32 25" fill="none" xmlns="http://www.w3.org/2000/svg">
<path d="M31.9086 12.0837L28.48 4.11143C28.3925 3.90558 28.2462 3.72993 28.0592 3.60639C27.8722 3.48285 27.6529 3.41688 27.4286 3.4167H24V1.1389C24 0.836845 23.8796 0.547162 23.6653 0.333576C23.4509 0.119991 23.1602 0 22.8571 0H1.14286C0.839753 0 0.549062 0.119991 0.334735 0.333576C0.120408 0.547162 0 0.836845 0 1.1389V20.5002C0 20.8023 0.120408 21.0919 0.334735 21.3055C0.549062 21.5191 0.839753 21.6391 1.14286 21.6391H3.58857C3.85175 22.6042 4.42629 23.4561 5.22354 24.0635C6.02079 24.6709 6.99645 25 8 25C9.00355 25 9.97921 24.6709 10.7765 24.0635C11.5737 23.4561 12.1482 22.6042 12.4114 21.6391H19.5886C19.8518 22.6042 20.4263 23.4561 21.2235 24.0635C22.0208 24.6709 22.9965 25 24 25C25.0035 25 25.9792 24.6709 26.7765 24.0635C27.5737 23.4561 28.1483 22.6042 28.4114 21.6391H30.8571C31.1602 21.6391 31.4509 21.5191 31.6653 21.3055C31.8796 21.0919 32 20.8023 32 20.5002V12.5279C31.9997 12.3752 31.9686 12.2242 31.9086 12.0837ZM24 5.6945H26.6743L29.12 11.389H24V5.6945ZM8 22.778C7.54793 22.778 7.10601 22.6444 6.73013 22.3941C6.35424 22.1438 6.06128 21.7881 5.88828 21.3719C5.71528 20.9557 5.67001 20.4977 5.75821 20.0558C5.8464 19.614 6.06409 19.2081 6.38376 18.8896C6.70342 18.571 7.11069 18.3541 7.55408 18.2662C7.99746 18.1783 8.45705 18.2234 8.87471 18.3958C9.29236 18.5682 9.64934 18.8601 9.9005 19.2347C10.1517 19.6093 10.2857 20.0497 10.2857 20.5002C10.2857 21.1043 10.0449 21.6837 9.61624 22.1109C9.18759 22.538 8.60621 22.778 8 22.778ZM19.5886 19.3613H12.4114C12.1482 18.3962 11.5737 17.5443 10.7765 16.9369C9.97921 16.3295 9.00355 16.0004 8 16.0004C6.99645 16.0004 6.02079 16.3295 5.22354 16.9369C4.42629 17.5443 3.85175 18.3962 3.58857 19.3613H2.28571V2.2778H21.7143V16.5824C21.1939 16.8834 20.7382 17.2838 20.3734 17.7607C20.0087 18.2375 19.7419 18.7815 19.5886 19.3613ZM24 22.778C23.5479 22.778 23.106 22.6444 22.7301 22.3941C22.3542 22.1438 22.0613 21.7881 21.8883 21.3719C21.7153 20.9557 21.67 20.4977 21.7582 20.0558C21.8464 19.614 22.0641 19.2081 22.3838 18.8896C22.7034 18.571 23.1107 18.3541 23.5541 18.2662C23.9975 18.1783 24.457 18.2234 24.8747 18.3958C25.2924 18.5682 25.6493 18.8601 25.9005 19.2347C26.1517 19.6093 26.2857 20.0497 26.2857 20.5002C26.2857 21.1043 26.0449 21.6837 25.6162 22.1109C25.1876 22.538 24.6062 22.778 24 22.778ZM29.7143 19.3613H28.4114C28.1587 18.3859 27.5886 17.5214 26.7904 16.9032C25.9922 16.285 25.0109 15.9479 24 15.9446V13.6668H29.7143V19.3613Z" fill="#395589"/>
</svg>
